<mxfile host="app.diagrams.net" modified="2023-04-25T01:23:36.150Z" agent="Mozilla/5.0 (Windows NT 10.0; Win64; x64) AppleWebKit/537.36 (KHTML, like Gecko) Chrome/112.0.0.0 Safari/537.36" version="21.2.1" etag="toH9P3h91ldrRtCEDo1j" type="github">
  <diagram name="ページ1" id="8UALFH6R8ySKBdk6I6Zn">
    <mxGraphModel>
      <root>
        <mxCell id="0" />
        <mxCell id="1" parent="0" />
      </root>
    </mxGraphModel>
  </diagram>
</mxfile>
